<svg viewBox="0 0 64 64" xml:space="preserve" xmlns="http://www.w3.org/2000/svg"><circle cx="32" cy="32" fill="#2e2e2e" r="32" class="fill-76c2af"></circle><g opacity=".2"><path d="M42.461 44a2.002 2.002 0 0 1-1.052-3.703l10.124-6.242c.005-.018.007-.036.007-.056s-.002-.038-.007-.056l-10.123-6.24a2 2 0 0 1 2.099-3.405l10.63 6.554.165.165A4.19 4.19 0 0 1 55.54 34a4.192 4.192 0 0 1-1.236 2.983l-.166.166-10.63 6.554a1.99 1.99 0 0 1-1.047.297zM21.539 44c-.358 0-.721-.096-1.048-.298l-10.63-6.554-.166-.166A4.188 4.188 0 0 1 8.459 34c0-1.127.439-2.187 1.236-2.983l.165-.165 10.63-6.554a2 2 0 1 1 2.099 3.405l-10.124 6.242c-.005.018-.007.036-.007.056s.002.038.007.056l10.124 6.242A1.997 1.997 0 0 1 21.539 44z" fill="#231F20" class="fill-231f20"></path></g><path d="M25.5 53a2.001 2.001 0 0 1-1.868-2.715l13-34a2 2 0 1 1 3.737 1.429l-13 34A2.002 2.002 0 0 1 25.5 53z" fill="#231F20" opacity=".2" class="fill-231f20"></path><path d="M42.461 42a2 2 0 0 1-1.052-3.702l10.123-6.241a.217.217 0 0 0 0-.113L41.41 25.702a2 2 0 1 1 2.099-3.404l10.631 6.554.166.165a4.226 4.226 0 0 1 0 5.967l-.166.165-10.631 6.554c-.327.201-.69.297-1.048.297zM21.539 42c-.358 0-.72-.096-1.047-.298L9.86 35.148l-.166-.165a4.226 4.226 0 0 1 0-5.967l.166-.165 10.631-6.554a1.999 1.999 0 1 1 2.099 3.404l-10.123 6.241a.217.217 0 0 0 0 .113l10.123 6.241A2 2 0 0 1 21.539 42zM25.5 51.001a2 2 0 0 1-1.868-2.715l13-34a2 2 0 0 1 3.737 1.428l-13 34a2.003 2.003 0 0 1-1.869 1.287z" fill="#FFFFFF" class="fill-ffffff"></path></svg>